<svg width="16" height="16" viewBox="0 0 16 16" fill="none" xmlns="http://www.w3.org/2000/svg">
<path d="M8.93343 7.59961V4.26628C8.93343 4.08947 8.86319 3.9199 8.73817 3.79487C8.61314 3.66985 8.44357 3.59961 8.26676 3.59961C8.08995 3.59961 7.92038 3.66985 7.79536 3.79487C7.67034 3.9199 7.6001 4.08947 7.6001 4.26628V7.59961H4.26676C4.08995 7.59961 3.92038 7.66985 3.79536 7.79487C3.67034 7.9199 3.6001 8.08946 3.6001 8.26628C3.6001 8.44309 3.67034 8.61266 3.79536 8.73768C3.92038 8.8627 4.08995 8.93294 4.26676 8.93294H7.6001V12.2663C7.6001 12.4431 7.67034 12.6127 7.79536 12.7377C7.92038 12.8627 8.08995 12.9329 8.26676 12.9329C8.44357 12.9329 8.61314 12.8627 8.73817 12.7377C8.86319 12.6127 8.93343 12.4431 8.93343 12.2663V8.93294H12.2668C12.4436 8.93294 12.6131 8.8627 12.7382 8.73768C12.8632 8.61266 12.9334 8.44309 12.9334 8.26628C12.9334 8.08946 12.8632 7.9199 12.7382 7.79487C12.6131 7.66985 12.4436 7.59961 12.2668 7.59961H8.93343Z" fill="#EA580C"/>
</svg>
