<svg width="64" height="64" viewBox="0 0 64 64" fill="none" xmlns="http://www.w3.org/2000/svg">
<path d="M12.36 38.4403L15.1307 32.5656C15.4864 31.8115 16.5139 31.8115 16.8696 32.5656L19.6403 38.4403L25.8364 39.3883C26.6314 39.5099 26.9482 40.5325 26.3727 41.1195L21.89 45.6891L22.9479 52.1448C23.0838 52.9739 22.2523 53.6059 21.541 53.2144L16.0002 50.1648L10.4593 53.2144C9.748 53.6059 8.91651 52.9739 9.05237 52.1448L10.1103 45.6891L5.62763 41.1195C5.05208 40.5325 5.36893 39.5099 6.16392 39.3883L12.36 38.4403Z" stroke="#155ADA" stroke-width="1.5" stroke-linecap="round" stroke-linejoin="round"/>
<path d="M44.3599 38.4403L47.1308 32.5656C47.4863 31.8115 48.514 31.8115 48.8695 32.5656L51.6404 38.4403L57.8364 39.3883C58.6313 39.5099 58.9481 40.5325 58.3727 41.1195L53.89 45.6891L54.9479 52.1448C55.0839 52.9739 54.2524 53.6059 53.5409 53.2144L48.0001 50.1648L42.4593 53.2144C41.7479 53.6059 40.9164 52.9739 41.0524 52.1448L42.1103 45.6891L37.6276 41.1195C37.0521 40.5325 37.3689 39.5099 38.1639 39.3883L44.3599 38.4403Z" stroke="#155ADA" stroke-width="1.5" stroke-linecap="round" stroke-linejoin="round"/>
<path d="M28.3599 14.4404L31.1308 8.56562C31.4863 7.81146 32.514 7.81146 32.8695 8.56562L35.6404 14.4404L41.8364 15.3883C42.6314 15.5099 42.9482 16.5326 42.3727 17.1194L37.89 21.689L38.9479 28.1448C39.0839 28.9739 38.2524 29.6059 37.541 29.2144L32.0002 26.1647L26.4593 29.2144C25.748 29.6059 24.9165 28.9739 25.0524 28.1448L26.1103 21.689L21.6276 17.1194C21.0521 16.5326 21.3689 15.5099 22.1639 15.3883L28.3599 14.4404Z" stroke="#155ADA" stroke-width="1.5" stroke-linecap="round" stroke-linejoin="round"/>
</svg>
